<?xml version="1.0" encoding="utf-8"?>
<!-- Generator: Adobe Illustrator 25.3.1, SVG Export Plug-In . SVG Version: 6.00 Build 0)  -->
<svg version="1.1" id="Livello_1" xmlns="http://www.w3.org/2000/svg" xmlns:xlink="http://www.w3.org/1999/xlink" x="0px" y="0px"
	 viewBox="0 0 841.89 595.28" style="enable-background:new 0 0 841.89 595.28;" xml:space="preserve">
<style type="text/css">
	.st0{fill:#edf6f9;}
</style>
<path class="st0" d="M428.81,83.54c-73.09,0-134.74,49.03-153.84,116c-3.99,13.97-6.12,28.71-6.12,43.96v186.96
	c0,0,19.63,82.88,106.63,82.88V394.36c16.68,5.89,34.63,9.1,53.33,9.1c88.34,0,159.96-71.62,159.96-159.96
	S517.15,83.54,428.81,83.54z M428.81,310.75c-37.14,0-67.25-30.11-67.25-67.25c0-37.14,30.11-67.25,67.25-67.25
	c37.14,0,67.25,30.11,67.25,67.25C496.06,280.64,465.95,310.75,428.81,310.75z"/>
</svg>
